<svg width="46" height="84" viewBox="0 0 46 84" fill="none" xmlns="http://www.w3.org/2000/svg">
<path id="Vector" d="M45.5475 22.7V60.5333C45.5475 73.0562 35.3703 83.2333 22.8475 83.2333C10.3246 83.2333 0.147461 73.0562 0.147461 60.5333V49.1833C0.147461 47.1025 1.84996 45.4 3.93079 45.4C6.01163 45.4 7.71413 47.1025 7.71413 49.1833V60.5333C7.71413 68.8945 14.4863 75.6667 22.8475 75.6667C31.2086 75.6667 37.9808 68.8945 37.9808 60.5333V22.7C37.9808 20.2408 37.3755 17.933 36.354 15.89C33.857 10.9338 28.7495 7.56667 22.8475 7.56667C14.8646 7.56667 8.3573 13.6957 7.7898 21.5272L0.185295 23.0027C0.147462 22.8892 0.147461 22.8135 0.147461 22.7C0.147461 10.1772 10.3246 0 22.8475 0C32.4571 0 40.667 5.97767 43.9585 14.4145C44.98 16.9872 45.5475 19.7868 45.5475 22.7Z" fill="#547580"/>
</svg>
