<svg width="44" height="44" viewBox="0 0 44 44" fill="none" xmlns="http://www.w3.org/2000/svg">
<circle cx="22" cy="22" r="22" fill="#F9F9F9"/>
<g clip-path="url(#clip0_546_6855)">
<path d="M36.4961 17.2111C36.4961 17.6715 36.2227 18.0861 35.7994 18.2676L33.6097 19.2055L31.9691 19.9082L25.7495 22.5721H19.2427L9.19281 18.2676C8.76953 18.0861 8.49609 17.6715 8.49609 17.2111C8.49609 16.7506 8.76953 16.3355 9.19281 16.1545L22.4961 10.4561L31.9691 14.5139L33.6097 15.2166L35.7994 16.1545C36.2227 16.3355 36.4961 16.7506 36.4961 17.2111Z" fill="#639CEC"/>
<path d="M36.4961 17.2111C36.4961 17.6715 36.2227 18.0861 35.7994 18.2676L33.6097 19.2055L31.9691 19.9082L25.7495 22.5721H22.4961V10.4561L31.9691 14.5139L33.6097 15.2166L35.7994 16.1545C36.2227 16.3355 36.4961 16.7506 36.4961 17.2111Z" fill="#4773CC"/>
<path d="M15.1289 17.3154H29.8639V23.2725H15.1289V17.3154Z" fill="#514B7F"/>
<path d="M22.4961 17.3154H29.8636V23.2725H22.4961V17.3154Z" fill="#2B2F5B"/>
<path d="M33.6094 15.2165V22.572H31.9688V14.5138L33.6094 15.2165Z" fill="#2B2F5B"/>
<path d="M29.8639 22.531V26.1765C29.8639 30.2392 26.5586 33.544 22.4964 33.544C18.4342 33.544 15.1289 30.2392 15.1289 26.1765V22.531H29.8639Z" fill="#F9C5B9"/>
<path d="M29.8636 22.531V26.1765C29.8636 30.2392 26.5583 33.544 22.4961 33.544V22.531H29.8636Z" fill="#FFB19E"/>
</g>
<defs>
<clipPath id="clip0_546_6855">
<rect width="28" height="28" fill="white" transform="translate(8.49609 8)"/>
</clipPath>
</defs>
</svg>
